<?xml version="1.0" encoding="UTF-8"?>
<svg id="Calque_3" data-name="Calque 3" xmlns="http://www.w3.org/2000/svg" viewBox="0 0 1000 1000">
  <defs>
    <style>
      .cls-1 {
        fill: #e52321;
      }
    </style>
  </defs>
  <path d="M162.45,498.31V217.35h279.77c21.67,0,41.46,5.11,56.65,14.53-10.63,12.5-15.82,28.21-15.82,47.76,0,24.43,9.39,43.73,27.95,57.46-.21.2-.41.4-.62.6-40.06,17.67-45.23,52.46-45.23,80.89.17,14.01,4.06,38.23,25.55,59.62h-39.22v14.15c-30.22-9.4-67.43-14.15-110.8-14.15-51.8.1-94.71,6.86-127.61,20.09h-50.64ZM262.2,440.94h164.86c13.51,0,25.36-12.5,25.36-26.75s-11.85-26.75-25.36-26.75h-164.86v53.5ZM262.2,325.94h142.91c13.51,0,25.36-12.6,25.36-26.97s-11.85-26.75-25.36-26.75h-142.91v53.72Z"/>
  <path d="M340.7,792.67c-80-.16-136.8-16.57-168.83-48.79-21.98-22.11-33.05-52.55-32.9-90.48v-21.88c-.24-58.88,25.33-98.04,78.15-119.73,31.37-12.88,72.96-19.47,123.59-19.57,44,0,81.24,5,110.78,14.86v80.49h84.85c3.88,13.21,5.85,27.97,5.85,43.95v4.31l-90.7,50.53v91.36c-29.54,9.84-66.79,14.87-110.8,14.95ZM336.5,571.71c-30.18.42-50.31,4.04-65.25,11.75-19.9,10.28-29.82,28.05-29.48,52.84v7.14c-.34,24.79,9.57,42.63,29.47,52.93,14.93,7.73,35.06,11.37,65.26,11.78h.19c30.09-.42,50.15-4.05,65.06-11.79,19.88-10.31,29.78-28.15,29.44-53.03v-7.15c.34-24.68-9.56-42.46-29.45-52.74-14.92-7.71-34.98-11.34-65.06-11.75h-.1s-.1,0-.1,0Z"/>
  <path d="M465.5,779.05v-84.46l217.21-121.01h-217.21v-81.35h42.77c31.04,19.98,77.82,30.11,139.08,30.11h.84c61.47,0,108.44-10.13,139.66-30.11h50.82v84.17l-225.2,121.08h225.2v81.58h-373.18Z"/>
  <path class="cls-1" d="M647.35,508.32c-59.64,0-104.42-9.73-133.1-28.92-28.63-19.16-34.88-43.69-35.09-60.89,0-27.13,4.59-54.26,37.88-68.43,3.83-1.63,8.01-3.06,12.43-4.26l17.72-4.81-16.42-8.21c-1.86-.93-3.72-1.95-5.53-3.03-18.95-11.34-28.17-27.74-28.17-50.13,0-18.78,5.65-33.06,17.28-43.64,21.48-19.56,64.01-28.67,133.84-28.67,26.17,0,49.22,1.48,68.51,4.39,73.03,10.68,82.39,41.91,82.39,67.92,0,.94-.02,1.88-.05,2.83h-83.77c-5.62-11.65-18.29-21.9-65.69-21.9h-1.42c-28.67,0-62.89,5.87-62.89,33.81s33.62,30.46,62.91,30.46h212.85v43.64h-44.06v50.12c0,17.09-6.09,41.51-35.08,60.8-28.87,19.2-73.85,28.93-133.72,28.93h-.83ZM648.18,368.48c-35.75,0-76.78,3.97-76.78,34.92s43.82,35.82,76.78,35.82,83.94-4.65,83.94-35.82v-34.92h-83.94Z"/>
</svg>